<mxfile host="app.diagrams.net" modified="2022-09-20T03:13:46.564Z" agent="5.0 (Macintosh; Intel Mac OS X 10_15_7) AppleWebKit/537.36 (KHTML, like Gecko) Chrome/105.0.0.0 Safari/537.36" etag="B0H64hTg_PWcKYWE6CMM" version="20.3.2" type="github" pages="2">
  <diagram id="XDo_wFbg4EFVEe4id1Wt" name="镜像关系">
    <mxGraphModel dx="946" dy="589" grid="1" gridSize="10" guides="1" tooltips="1" connect="1" arrows="1" fold="1" page="1" pageScale="1" pageWidth="827" pageHeight="1169" math="0" shadow="0">
      <root>
        <mxCell id="0" />
        <mxCell id="1" parent="0" />
        <mxCell id="X9KOwfOl-lz9BM8adhqD-38" value="" style="whiteSpace=wrap;html=1;aspect=fixed;" parent="1" vertex="1">
          <mxGeometry x="62.5" y="510" width="310" height="310" as="geometry" />
        </mxCell>
        <mxCell id="X9KOwfOl-lz9BM8adhqD-25" value="" style="whiteSpace=wrap;html=1;aspect=fixed;" parent="1" vertex="1">
          <mxGeometry x="80" y="140" width="275" height="275" as="geometry" />
        </mxCell>
        <mxCell id="X9KOwfOl-lz9BM8adhqD-13" value="" style="whiteSpace=wrap;html=1;aspect=fixed;" parent="1" vertex="1">
          <mxGeometry x="460" y="60" width="350" height="350" as="geometry" />
        </mxCell>
        <mxCell id="X9KOwfOl-lz9BM8adhqD-2" value="busybox:latest" style="rounded=1;whiteSpace=wrap;html=1;" parent="1" vertex="1">
          <mxGeometry x="505" y="120" width="120" height="60" as="geometry" />
        </mxCell>
        <mxCell id="X9KOwfOl-lz9BM8adhqD-6" style="edgeStyle=orthogonalEdgeStyle;rounded=0;orthogonalLoop=1;jettySize=auto;html=1;exitX=0.5;exitY=0;exitDx=0;exitDy=0;" parent="1" source="X9KOwfOl-lz9BM8adhqD-5" target="X9KOwfOl-lz9BM8adhqD-2" edge="1">
          <mxGeometry relative="1" as="geometry" />
        </mxCell>
        <mxCell id="X9KOwfOl-lz9BM8adhqD-5" value="formu1ae-core-artifacts" style="rounded=1;whiteSpace=wrap;html=1;" parent="1" vertex="1">
          <mxGeometry x="480" y="220" width="170" height="50" as="geometry" />
        </mxCell>
        <mxCell id="X9KOwfOl-lz9BM8adhqD-7" value="openjdk:11" style="rounded=1;whiteSpace=wrap;html=1;" parent="1" vertex="1">
          <mxGeometry x="680" y="210" width="120" height="60" as="geometry" />
        </mxCell>
        <mxCell id="X9KOwfOl-lz9BM8adhqD-10" style="edgeStyle=orthogonalEdgeStyle;rounded=0;orthogonalLoop=1;jettySize=auto;html=1;entryX=0.5;entryY=1;entryDx=0;entryDy=0;exitX=0.75;exitY=0;exitDx=0;exitDy=0;" parent="1" source="X9KOwfOl-lz9BM8adhqD-8" target="X9KOwfOl-lz9BM8adhqD-7" edge="1">
          <mxGeometry relative="1" as="geometry" />
        </mxCell>
        <mxCell id="X9KOwfOl-lz9BM8adhqD-12" style="edgeStyle=orthogonalEdgeStyle;rounded=0;orthogonalLoop=1;jettySize=auto;html=1;exitX=0.25;exitY=0;exitDx=0;exitDy=0;entryX=0.5;entryY=1;entryDx=0;entryDy=0;" parent="1" source="X9KOwfOl-lz9BM8adhqD-8" target="X9KOwfOl-lz9BM8adhqD-5" edge="1">
          <mxGeometry relative="1" as="geometry" />
        </mxCell>
        <mxCell id="X9KOwfOl-lz9BM8adhqD-8" value="dal" style="rounded=1;whiteSpace=wrap;html=1;" parent="1" vertex="1">
          <mxGeometry x="610" y="310" width="80" height="30" as="geometry" />
        </mxCell>
        <mxCell id="X9KOwfOl-lz9BM8adhqD-15" value="forma1ae-core" style="text;html=1;strokeColor=none;fillColor=none;align=center;verticalAlign=middle;whiteSpace=wrap;rounded=0;fontSize=15;" parent="1" vertex="1">
          <mxGeometry x="470" y="70" width="100" height="30" as="geometry" />
        </mxCell>
        <mxCell id="X9KOwfOl-lz9BM8adhqD-23" style="edgeStyle=orthogonalEdgeStyle;rounded=0;orthogonalLoop=1;jettySize=auto;html=1;exitX=0.5;exitY=0;exitDx=0;exitDy=0;entryX=0.5;entryY=1;entryDx=0;entryDy=0;fontSize=13;" parent="1" source="X9KOwfOl-lz9BM8adhqD-18" target="X9KOwfOl-lz9BM8adhqD-21" edge="1">
          <mxGeometry relative="1" as="geometry" />
        </mxCell>
        <mxCell id="X9KOwfOl-lz9BM8adhqD-18" value="app-base" style="rounded=1;whiteSpace=wrap;html=1;fontSize=13;" parent="1" vertex="1">
          <mxGeometry x="157" y="270" width="86" height="40" as="geometry" />
        </mxCell>
        <mxCell id="X9KOwfOl-lz9BM8adhqD-20" style="edgeStyle=orthogonalEdgeStyle;rounded=0;orthogonalLoop=1;jettySize=auto;html=1;exitX=0.25;exitY=0;exitDx=0;exitDy=0;entryX=0.5;entryY=1;entryDx=0;entryDy=0;fontSize=13;" parent="1" source="X9KOwfOl-lz9BM8adhqD-19" target="X9KOwfOl-lz9BM8adhqD-18" edge="1">
          <mxGeometry relative="1" as="geometry" />
        </mxCell>
        <mxCell id="X9KOwfOl-lz9BM8adhqD-24" style="edgeStyle=orthogonalEdgeStyle;rounded=0;orthogonalLoop=1;jettySize=auto;html=1;exitX=0.75;exitY=0;exitDx=0;exitDy=0;entryX=0.25;entryY=1;entryDx=0;entryDy=0;fontSize=15;" parent="1" source="X9KOwfOl-lz9BM8adhqD-19" target="X9KOwfOl-lz9BM8adhqD-5" edge="1">
          <mxGeometry relative="1" as="geometry" />
        </mxCell>
        <mxCell id="X9KOwfOl-lz9BM8adhqD-19" value="app" style="rounded=1;whiteSpace=wrap;html=1;fontSize=13;" parent="1" vertex="1">
          <mxGeometry x="237" y="360" width="86" height="40" as="geometry" />
        </mxCell>
        <mxCell id="X9KOwfOl-lz9BM8adhqD-21" value="apache/airflow&lt;br style=&quot;font-size: 13px;&quot;&gt;2.2.3-python3.7" style="rounded=1;whiteSpace=wrap;html=1;fontSize=13;" parent="1" vertex="1">
          <mxGeometry x="120" y="200" width="160" height="40" as="geometry" />
        </mxCell>
        <mxCell id="X9KOwfOl-lz9BM8adhqD-26" value="forma1ae-autosys" style="text;html=1;strokeColor=none;fillColor=none;align=center;verticalAlign=middle;whiteSpace=wrap;rounded=0;fontSize=15;" parent="1" vertex="1">
          <mxGeometry x="90" y="150" width="130" height="30" as="geometry" />
        </mxCell>
        <mxCell id="X9KOwfOl-lz9BM8adhqD-33" style="edgeStyle=orthogonalEdgeStyle;rounded=0;orthogonalLoop=1;jettySize=auto;html=1;exitX=0.5;exitY=0;exitDx=0;exitDy=0;entryX=0.5;entryY=1;entryDx=0;entryDy=0;fontSize=13;" parent="1" source="X9KOwfOl-lz9BM8adhqD-28" target="X9KOwfOl-lz9BM8adhqD-32" edge="1">
          <mxGeometry relative="1" as="geometry" />
        </mxCell>
        <mxCell id="X9KOwfOl-lz9BM8adhqD-28" value="analytics-core-artifacts" style="rounded=1;whiteSpace=wrap;html=1;fontSize=13;" parent="1" vertex="1">
          <mxGeometry x="67.5" y="660" width="140" height="30" as="geometry" />
        </mxCell>
        <mxCell id="X9KOwfOl-lz9BM8adhqD-34" style="edgeStyle=orthogonalEdgeStyle;rounded=0;orthogonalLoop=1;jettySize=auto;html=1;exitX=0.5;exitY=0;exitDx=0;exitDy=0;fontSize=13;" parent="1" source="X9KOwfOl-lz9BM8adhqD-29" target="X9KOwfOl-lz9BM8adhqD-31" edge="1">
          <mxGeometry relative="1" as="geometry" />
        </mxCell>
        <mxCell id="X9KOwfOl-lz9BM8adhqD-29" value="grid-base" style="rounded=1;whiteSpace=wrap;html=1;fontSize=13;" parent="1" vertex="1">
          <mxGeometry x="227.5" y="660" width="140" height="30" as="geometry" />
        </mxCell>
        <mxCell id="X9KOwfOl-lz9BM8adhqD-35" style="edgeStyle=orthogonalEdgeStyle;rounded=0;orthogonalLoop=1;jettySize=auto;html=1;exitX=0.25;exitY=0;exitDx=0;exitDy=0;entryX=0.5;entryY=1;entryDx=0;entryDy=0;fontSize=13;" parent="1" source="X9KOwfOl-lz9BM8adhqD-30" target="X9KOwfOl-lz9BM8adhqD-28" edge="1">
          <mxGeometry relative="1" as="geometry" />
        </mxCell>
        <mxCell id="X9KOwfOl-lz9BM8adhqD-36" style="edgeStyle=orthogonalEdgeStyle;rounded=0;orthogonalLoop=1;jettySize=auto;html=1;exitX=0.75;exitY=0;exitDx=0;exitDy=0;entryX=0.5;entryY=1;entryDx=0;entryDy=0;fontSize=13;" parent="1" source="X9KOwfOl-lz9BM8adhqD-30" target="X9KOwfOl-lz9BM8adhqD-29" edge="1">
          <mxGeometry relative="1" as="geometry" />
        </mxCell>
        <mxCell id="X9KOwfOl-lz9BM8adhqD-30" value="grid" style="rounded=1;whiteSpace=wrap;html=1;fontSize=13;" parent="1" vertex="1">
          <mxGeometry x="155" y="750" width="140" height="30" as="geometry" />
        </mxCell>
        <mxCell id="X9KOwfOl-lz9BM8adhqD-31" value="rayproject/ray&lt;br&gt;1.13.0" style="rounded=1;whiteSpace=wrap;html=1;fontSize=13;" parent="1" vertex="1">
          <mxGeometry x="227.5" y="580" width="140" height="30" as="geometry" />
        </mxCell>
        <mxCell id="X9KOwfOl-lz9BM8adhqD-32" value="openjdk:11" style="rounded=1;whiteSpace=wrap;html=1;fontSize=13;" parent="1" vertex="1">
          <mxGeometry x="67.5" y="580" width="140" height="30" as="geometry" />
        </mxCell>
        <mxCell id="X9KOwfOl-lz9BM8adhqD-39" value="forma1ae-analytics-core" style="text;html=1;strokeColor=none;fillColor=none;align=center;verticalAlign=middle;whiteSpace=wrap;rounded=0;fontSize=15;" parent="1" vertex="1">
          <mxGeometry x="72.5" y="520" width="167.5" height="30" as="geometry" />
        </mxCell>
      </root>
    </mxGraphModel>
  </diagram>
  <diagram id="QH7vc_-Yj3qXH3qq_Wlh" name="smoke-test容器关系">
    <mxGraphModel dx="788" dy="567" grid="1" gridSize="10" guides="1" tooltips="1" connect="1" arrows="1" fold="1" page="1" pageScale="1" pageWidth="1169" pageHeight="827" math="0" shadow="0">
      <root>
        <mxCell id="0" />
        <mxCell id="1" parent="0" />
        <mxCell id="V0Vm67aZEQ86Z-TI0EAT-1" value="data&lt;br&gt;data:smoke&lt;br&gt;33001:33001" style="rounded=1;whiteSpace=wrap;html=1;" vertex="1" parent="1">
          <mxGeometry x="730" y="170" width="120" height="60" as="geometry" />
        </mxCell>
        <mxCell id="V0Vm67aZEQ86Z-TI0EAT-2" value="redis&lt;br&gt;redis:7.0.2&lt;br&gt;6379:6379" style="rounded=1;whiteSpace=wrap;html=1;" vertex="1" parent="1">
          <mxGeometry x="730" y="260" width="120" height="60" as="geometry" />
        </mxCell>
        <mxCell id="V0Vm67aZEQ86Z-TI0EAT-3" value="risk-engine-db&lt;br&gt;postgres:12.9&lt;br&gt;5432:5432" style="rounded=1;whiteSpace=wrap;html=1;" vertex="1" parent="1">
          <mxGeometry x="730" y="380" width="120" height="60" as="geometry" />
        </mxCell>
        <mxCell id="V0Vm67aZEQ86Z-TI0EAT-18" style="edgeStyle=orthogonalEdgeStyle;rounded=0;orthogonalLoop=1;jettySize=auto;html=1;exitX=1;exitY=0.5;exitDx=0;exitDy=0;endArrow=classic;endFill=1;" edge="1" parent="1" source="V0Vm67aZEQ86Z-TI0EAT-4" target="V0Vm67aZEQ86Z-TI0EAT-2">
          <mxGeometry relative="1" as="geometry" />
        </mxCell>
        <mxCell id="V0Vm67aZEQ86Z-TI0EAT-19" style="edgeStyle=orthogonalEdgeStyle;rounded=0;orthogonalLoop=1;jettySize=auto;html=1;exitX=0.5;exitY=1;exitDx=0;exitDy=0;endArrow=classic;endFill=1;" edge="1" parent="1" source="V0Vm67aZEQ86Z-TI0EAT-4" target="V0Vm67aZEQ86Z-TI0EAT-5">
          <mxGeometry relative="1" as="geometry" />
        </mxCell>
        <mxCell id="V0Vm67aZEQ86Z-TI0EAT-21" style="edgeStyle=orthogonalEdgeStyle;rounded=0;orthogonalLoop=1;jettySize=auto;html=1;exitX=1;exitY=0.5;exitDx=0;exitDy=0;entryX=0;entryY=0.5;entryDx=0;entryDy=0;endArrow=classic;endFill=1;" edge="1" parent="1" source="V0Vm67aZEQ86Z-TI0EAT-4" target="V0Vm67aZEQ86Z-TI0EAT-3">
          <mxGeometry relative="1" as="geometry" />
        </mxCell>
        <mxCell id="V0Vm67aZEQ86Z-TI0EAT-4" value="grid&lt;br&gt;grid:smoke&lt;br&gt;8265:8265&lt;br&gt;8000:8000" style="rounded=1;whiteSpace=wrap;html=1;" vertex="1" parent="1">
          <mxGeometry x="450" y="260" width="120" height="60" as="geometry" />
        </mxCell>
        <mxCell id="V0Vm67aZEQ86Z-TI0EAT-20" style="edgeStyle=orthogonalEdgeStyle;rounded=0;orthogonalLoop=1;jettySize=auto;html=1;exitX=0.5;exitY=1;exitDx=0;exitDy=0;entryX=0.5;entryY=0;entryDx=0;entryDy=0;endArrow=classic;endFill=1;" edge="1" parent="1" source="V0Vm67aZEQ86Z-TI0EAT-5" target="V0Vm67aZEQ86Z-TI0EAT-7">
          <mxGeometry relative="1" as="geometry" />
        </mxCell>
        <mxCell id="V0Vm67aZEQ86Z-TI0EAT-5" value="api&lt;br&gt;dal:smoke&lt;br&gt;10000:8080" style="rounded=1;whiteSpace=wrap;html=1;" vertex="1" parent="1">
          <mxGeometry x="450" y="360" width="120" height="60" as="geometry" />
        </mxCell>
        <mxCell id="V0Vm67aZEQ86Z-TI0EAT-7" value="dal&lt;br&gt;dal:smoke&lt;br&gt;3000:3000" style="rounded=1;whiteSpace=wrap;html=1;" vertex="1" parent="1">
          <mxGeometry x="450" y="463.5" width="120" height="60" as="geometry" />
        </mxCell>
        <mxCell id="V0Vm67aZEQ86Z-TI0EAT-12" style="rounded=0;orthogonalLoop=1;jettySize=auto;html=1;exitX=0.5;exitY=1;exitDx=0;exitDy=0;entryX=0.5;entryY=0;entryDx=0;entryDy=0;endArrow=none;endFill=0;" edge="1" parent="1" source="V0Vm67aZEQ86Z-TI0EAT-9" target="V0Vm67aZEQ86Z-TI0EAT-11">
          <mxGeometry relative="1" as="geometry" />
        </mxCell>
        <mxCell id="V0Vm67aZEQ86Z-TI0EAT-9" value="app&lt;br&gt;app-test:smoke&lt;br&gt;8080:8080" style="rounded=1;whiteSpace=wrap;html=1;" vertex="1" parent="1">
          <mxGeometry x="220" y="310" width="120" height="60" as="geometry" />
        </mxCell>
        <mxCell id="V0Vm67aZEQ86Z-TI0EAT-11" value="*.json" style="shape=datastore;whiteSpace=wrap;html=1;" vertex="1" parent="1">
          <mxGeometry x="250" y="400" width="60" height="60" as="geometry" />
        </mxCell>
      </root>
    </mxGraphModel>
  </diagram>
</mxfile>
